<?xml version="1.0" encoding="iso-8859-1"?>
<!-- Generator: Adobe Illustrator 19.1.0, SVG Export Plug-In . SVG Version: 6.00 Build 0)  -->
<svg version="1.1" xmlns="http://www.w3.org/2000/svg" xmlns:xlink="http://www.w3.org/1999/xlink" x="0px" y="0px"
	 viewBox="203 162 24 24" style="enable-background:new 203 162 24 24;" xml:space="preserve">
<g id="Layer_1" style="display:none;">
	<g style="display:inline;">
		<path d="M215,165.628L203,174l12,8.372L227,174L215,165.628z M210.766,174c0-2.338,1.896-4.234,4.234-4.234
			c0.6,0,1.17,0.126,1.688,0.351c-0.989,0.122-1.754,0.964-1.754,1.986c0,1.105,0.896,2.001,2.001,2.001
			c1.008,0,1.842-0.745,1.981-1.715c0.205,0.497,0.318,1.041,0.318,1.612c0,2.338-1.896,4.234-4.234,4.234
			S210.766,176.338,210.766,174z"/>
	</g>
</g>
<g id="Layer_1_copy">
	<g>
		<path d="M215,165.628L203,174l12,8.372L227,174L215,165.628z M219.333,178.333h-8.667v-8.667h8.667V178.333z M218.229,174
			c0,1.783-1.446,3.229-3.229,3.229s-3.229-1.446-3.229-3.229s1.446-3.229,3.229-3.229S218.229,172.217,218.229,174z
			 M218.729,170.771c0,0.276-0.224,0.5-0.5,0.5c-0.276,0-0.5-0.224-0.5-0.5c0-0.276,0.224-0.5,0.5-0.5
			C218.505,170.271,218.729,170.495,218.729,170.771z"/>
	</g>
</g>
</svg>
