<svg xmlns="http://www.w3.org/2000/svg" viewBox="-531.234 -1993 20.016 16.241">
  <defs>
    <style>
      .cls-1 {
        fill: #afafaf;
      }

      .cls-2 {
        fill: #c6c6c6;
      }
    </style>
  </defs>
  <g id="group-77" transform="translate(22 -48)">
    <path id="path-13" class="cls-1" d="M0,2.862,9.925-5.1l10.09,7.964-9.958,8.277ZM6.227,2.9a3.764,3.764,0,1,0,7.246-1.431A1.78,1.78,0,1,1,11.49-.551,3.764,3.764,0,0,0,6.227,2.9Z" transform="translate(-553.234 -1939.898)"/>
    <path id="path-13-2" data-name="path-13" class="cls-2" d="M10.057,11.137l-.036-4.47a3.765,3.765,0,0,0,3.451-5.2A1.779,1.779,0,1,1,11.489-.551a3.742,3.742,0,0,0-1.5-.311L9.925-5.1l10.09,7.964-9.956,8.276h0Z" transform="translate(-553.234 -1939.898)"/>
  </g>
</svg>
